<?xml version="1.0" encoding="UTF-8" standalone="no"?>
<!DOCTYPE svg PUBLIC "-//W3C//DTD SVG 1.1//EN"
 "http://www.w3.org/Graphics/SVG/1.1/DTD/svg11.dtd">
<!-- Generated by graphviz version 2.40.1 (20161225.0304)
 -->
<!-- Title: categories Pages: 1 -->
<svg width="579pt" height="652pt"
 viewBox="0.00 0.00 578.50 652.00" xmlns="http://www.w3.org/2000/svg" xmlns:xlink="http://www.w3.org/1999/xlink">
<g id="graph0" class="graph" transform="scale(1 1) rotate(0) translate(4 648)">
<title>categories</title>
<polygon fill="#ffffff" stroke="transparent" points="-4,4 -4,-648 574.5,-648 574.5,4 -4,4"/>
<!-- categories -->
<g id="node1" class="node">
<title>categories</title>
<polygon fill="#efefef" stroke="transparent" points="55.5,-135.5 55.5,-170.5 279.5,-170.5 279.5,-135.5 55.5,-135.5"/>
<polygon fill="none" stroke="#000000" points="55.5,-135.5 55.5,-170.5 279.5,-170.5 279.5,-135.5 55.5,-135.5"/>
<text text-anchor="start" x="62.2062" y="-148.3" font-family="Arial Bold" font-size="18.00" fill="#000000">categories</text>
<text text-anchor="start" x="145.2258" y="-148.3" font-family="Arial" font-size="14.00" fill="#000000">    </text>
<text text-anchor="start" x="179.4306" y="-148.3" font-family="Arial" font-size="14.00" fill="#666666">[BASE TABLE]</text>
<polygon fill="none" stroke="#000000" points="55.5,-105.5 55.5,-135.5 279.5,-135.5 279.5,-105.5 55.5,-105.5"/>
<text text-anchor="start" x="62.5" y="-116.9" font-family="Arial" font-size="14.00" fill="#000000">id </text>
<text text-anchor="start" x="77.2798" y="-116.9" font-family="Arial" font-size="14.00" fill="#666666">[bigint(20) unsigned]</text>
<polygon fill="none" stroke="#000000" points="55.5,-75.5 55.5,-105.5 279.5,-105.5 279.5,-75.5 55.5,-75.5"/>
<text text-anchor="start" x="62.5" y="-86.9" font-family="Arial" font-size="14.00" fill="#000000">name </text>
<text text-anchor="start" x="101.399" y="-86.9" font-family="Arial" font-size="14.00" fill="#666666">[varchar(255)]</text>
<polygon fill="none" stroke="#000000" points="55.5,-45.5 55.5,-75.5 279.5,-75.5 279.5,-45.5 55.5,-45.5"/>
<text text-anchor="start" x="62.5" y="-56.9" font-family="Arial" font-size="14.00" fill="#000000">display_order </text>
<text text-anchor="start" x="150.4032" y="-56.9" font-family="Arial" font-size="14.00" fill="#666666">[int(11)]</text>
<polygon fill="none" stroke="#000000" stroke-width="3" points="54,-44.5 54,-172.5 281,-172.5 281,-44.5 54,-44.5"/>
</g>
<!-- todos -->
<g id="node2" class="node">
<title>todos</title>
<polygon fill="#efefef" stroke="transparent" points="43.5,-565.5 43.5,-600.5 290.5,-600.5 290.5,-565.5 43.5,-565.5"/>
<polygon fill="none" stroke="#000000" points="43.5,-565.5 43.5,-600.5 290.5,-600.5 290.5,-565.5 43.5,-565.5"/>
<text text-anchor="start" x="81.2056" y="-578.3" font-family="Arial Bold" font-size="18.00" fill="#000000">todos</text>
<text text-anchor="start" x="125.2264" y="-578.3" font-family="Arial" font-size="14.00" fill="#000000">    </text>
<text text-anchor="start" x="159.4312" y="-578.3" font-family="Arial" font-size="14.00" fill="#666666">[BASE TABLE]</text>
<polygon fill="none" stroke="#000000" points="43.5,-535.5 43.5,-565.5 290.5,-565.5 290.5,-535.5 43.5,-535.5"/>
<text text-anchor="start" x="50.5" y="-546.9" font-family="Arial" font-size="14.00" fill="#000000">id    </text>
<text text-anchor="start" x="95.594" y="-546.9" font-family="Arial" font-size="14.00" fill="#666666">[bigint(20) unsigned]</text>
<polygon fill="none" stroke="#000000" points="43.5,-505.5 43.5,-535.5 290.5,-535.5 290.5,-505.5 43.5,-505.5"/>
<text text-anchor="start" x="50.5" y="-516.9" font-family="Arial" font-size="14.00" fill="#000000">user_name    </text>
<text text-anchor="start" x="154.7216" y="-516.9" font-family="Arial" font-size="14.00" fill="#666666">[varchar(255)]</text>
<polygon fill="none" stroke="#000000" points="43.5,-475.5 43.5,-505.5 290.5,-505.5 290.5,-475.5 43.5,-475.5"/>
<text text-anchor="start" x="50.5" y="-486.9" font-family="Arial" font-size="14.00" fill="#000000">name    </text>
<text text-anchor="start" x="119.7132" y="-486.9" font-family="Arial" font-size="14.00" fill="#666666">[varchar(255)]</text>
<polygon fill="none" stroke="#000000" points="43.5,-445.5 43.5,-475.5 290.5,-475.5 290.5,-445.5 43.5,-445.5"/>
<text text-anchor="start" x="50.3149" y="-456.9" font-family="Arial" font-size="14.00" fill="#000000">category_id    </text>
<text text-anchor="start" x="156.8731" y="-456.9" font-family="Arial" font-size="14.00" fill="#666666">[bigint(20) unsigned]</text>
<polygon fill="none" stroke="#000000" points="43.5,-415.5 43.5,-445.5 290.5,-445.5 290.5,-415.5 43.5,-415.5"/>
<text text-anchor="start" x="50.5" y="-426.9" font-family="Arial" font-size="14.00" fill="#000000">due_date    </text>
<text text-anchor="start" x="143.0736" y="-426.9" font-family="Arial" font-size="14.00" fill="#666666">[date]</text>
<polygon fill="none" stroke="#000000" points="43.5,-385.5 43.5,-415.5 290.5,-415.5 290.5,-385.5 43.5,-385.5"/>
<text text-anchor="start" x="50.5" y="-396.9" font-family="Arial" font-size="14.00" fill="#000000">status    </text>
<text text-anchor="start" x="122.0512" y="-396.9" font-family="Arial" font-size="14.00" fill="#666666">[enum(&#39;todo&#39;,&#39;done&#39;)]</text>
<polygon fill="none" stroke="#000000" points="43.5,-355.5 43.5,-385.5 290.5,-385.5 290.5,-355.5 43.5,-355.5"/>
<text text-anchor="start" x="50.5" y="-366.9" font-family="Arial" font-size="14.00" fill="#000000">deleted    </text>
<text text-anchor="start" x="130.615" y="-366.9" font-family="Arial" font-size="14.00" fill="#666666">[tinyint(1)]</text>
<polygon fill="none" stroke="#000000" points="43.5,-325.5 43.5,-355.5 290.5,-355.5 290.5,-325.5 43.5,-325.5"/>
<text text-anchor="start" x="50.5" y="-336.9" font-family="Arial" font-size="14.00" fill="#000000">created_at    </text>
<text text-anchor="start" x="150.8422" y="-336.9" font-family="Arial" font-size="14.00" fill="#666666">[timestamp]</text>
<polygon fill="none" stroke="#000000" points="43.5,-295.5 43.5,-325.5 290.5,-325.5 290.5,-295.5 43.5,-295.5"/>
<text text-anchor="start" x="50.5" y="-306.9" font-family="Arial" font-size="14.00" fill="#000000">updated_at    </text>
<text text-anchor="start" x="154.7468" y="-306.9" font-family="Arial" font-size="14.00" fill="#666666">[timestamp]</text>
</g>
<!-- todos&#45;&gt;categories -->
<g id="edge1" class="edge">
<title>todos:category_id&#45;&gt;categories:id</title>
<path fill="none" stroke="#000000" d="M300.7437,-459.8827C380.1678,-449.8589 348.2246,-320.2409 290.5,-253 221.674,-172.8275 124.326,-297.1725 55.5,-217 27.5633,-184.4577 12.6111,-120.5 55.5,-120.5"/>
<polygon fill="#000000" stroke="#000000" points="300.4819,-459.8984 290.2293,-456.0081 295.4909,-460.1992 290.5,-460.5 290.5,-460.5 290.5,-460.5 295.4909,-460.1992 290.7707,-464.9919 300.4819,-459.8984 300.4819,-459.8984"/>
<text text-anchor="start" x="297.159" y="-470.5" font-family="Arial" font-size="10.00" fill="#000000">FOREIGN KEY (category_id) REFERENCES categories (id)</text>
</g>
</g>
</svg>
