<?xml version="1.0" encoding="UTF-8" standalone="no"?>
<!DOCTYPE svg PUBLIC "-//W3C//DTD SVG 1.1//EN"
 "http://www.w3.org/Graphics/SVG/1.1/DTD/svg11.dtd">
<!-- Generated by graphviz version 2.40.1 (20161225.0304)
 -->
<!-- Title: todos Pages: 1 -->
<svg width="552pt" height="652pt"
 viewBox="0.00 0.00 551.50 652.00" xmlns="http://www.w3.org/2000/svg" xmlns:xlink="http://www.w3.org/1999/xlink">
<g id="graph0" class="graph" transform="scale(1 1) rotate(0) translate(4 648)">
<title>todos</title>
<polygon fill="#ffffff" stroke="transparent" points="-4,4 -4,-648 547.5,-648 547.5,4 -4,4"/>
<!-- todos -->
<g id="node1" class="node">
<title>todos</title>
<polygon fill="#efefef" stroke="transparent" points="46.5,-562.5 46.5,-597.5 263.5,-597.5 263.5,-562.5 46.5,-562.5"/>
<polygon fill="none" stroke="#000000" points="46.5,-562.5 46.5,-597.5 263.5,-597.5 263.5,-562.5 46.5,-562.5"/>
<text text-anchor="start" x="69.2056" y="-575.3" font-family="Arial Bold" font-size="18.00" fill="#000000">todos</text>
<text text-anchor="start" x="113.2264" y="-575.3" font-family="Arial" font-size="14.00" fill="#000000">    </text>
<text text-anchor="start" x="147.4312" y="-575.3" font-family="Arial" font-size="14.00" fill="#666666">[BASE TABLE]</text>
<polygon fill="none" stroke="#000000" points="46.5,-532.5 46.5,-562.5 263.5,-562.5 263.5,-532.5 46.5,-532.5"/>
<text text-anchor="start" x="53.5" y="-543.9" font-family="Arial" font-size="14.00" fill="#000000">id </text>
<text text-anchor="start" x="68.2798" y="-543.9" font-family="Arial" font-size="14.00" fill="#666666">[bigint(20) unsigned]</text>
<polygon fill="none" stroke="#000000" points="46.5,-502.5 46.5,-532.5 263.5,-532.5 263.5,-502.5 46.5,-502.5"/>
<text text-anchor="start" x="53.5" y="-513.9" font-family="Arial" font-size="14.00" fill="#000000">user_name </text>
<text text-anchor="start" x="127.4074" y="-513.9" font-family="Arial" font-size="14.00" fill="#666666">[varchar(255)]</text>
<polygon fill="none" stroke="#000000" points="46.5,-472.5 46.5,-502.5 263.5,-502.5 263.5,-472.5 46.5,-472.5"/>
<text text-anchor="start" x="53.5" y="-483.9" font-family="Arial" font-size="14.00" fill="#000000">name </text>
<text text-anchor="start" x="92.399" y="-483.9" font-family="Arial" font-size="14.00" fill="#666666">[varchar(255)]</text>
<polygon fill="none" stroke="#000000" points="46.5,-442.5 46.5,-472.5 263.5,-472.5 263.5,-442.5 46.5,-442.5"/>
<text text-anchor="start" x="53.472" y="-453.9" font-family="Arial" font-size="14.00" fill="#000000">category_id </text>
<text text-anchor="start" x="129.716" y="-453.9" font-family="Arial" font-size="14.00" fill="#666666">[bigint(20) unsigned]</text>
<polygon fill="none" stroke="#000000" points="46.5,-412.5 46.5,-442.5 263.5,-442.5 263.5,-412.5 46.5,-412.5"/>
<text text-anchor="start" x="53.5" y="-423.9" font-family="Arial" font-size="14.00" fill="#000000">due_date </text>
<text text-anchor="start" x="115.7594" y="-423.9" font-family="Arial" font-size="14.00" fill="#666666">[date]</text>
<polygon fill="none" stroke="#000000" points="46.5,-382.5 46.5,-412.5 263.5,-412.5 263.5,-382.5 46.5,-382.5"/>
<text text-anchor="start" x="53.5" y="-393.9" font-family="Arial" font-size="14.00" fill="#000000">status </text>
<text text-anchor="start" x="94.737" y="-393.9" font-family="Arial" font-size="14.00" fill="#666666">[enum(&#39;todo&#39;,&#39;done&#39;)]</text>
<polygon fill="none" stroke="#000000" points="46.5,-352.5 46.5,-382.5 263.5,-382.5 263.5,-352.5 46.5,-352.5"/>
<text text-anchor="start" x="53.5" y="-363.9" font-family="Arial" font-size="14.00" fill="#000000">deleted </text>
<text text-anchor="start" x="103.3008" y="-363.9" font-family="Arial" font-size="14.00" fill="#666666">[tinyint(1)]</text>
<polygon fill="none" stroke="#000000" points="46.5,-322.5 46.5,-352.5 263.5,-352.5 263.5,-322.5 46.5,-322.5"/>
<text text-anchor="start" x="53.5" y="-333.9" font-family="Arial" font-size="14.00" fill="#000000">created_at </text>
<text text-anchor="start" x="123.528" y="-333.9" font-family="Arial" font-size="14.00" fill="#666666">[timestamp]</text>
<polygon fill="none" stroke="#000000" points="46.5,-292.5 46.5,-322.5 263.5,-322.5 263.5,-292.5 46.5,-292.5"/>
<text text-anchor="start" x="53.5" y="-303.9" font-family="Arial" font-size="14.00" fill="#000000">updated_at </text>
<text text-anchor="start" x="127.4326" y="-303.9" font-family="Arial" font-size="14.00" fill="#666666">[timestamp]</text>
<polygon fill="none" stroke="#000000" stroke-width="3" points="44.5,-291.5 44.5,-599.5 264.5,-599.5 264.5,-291.5 44.5,-291.5"/>
</g>
<!-- categories -->
<g id="node2" class="node">
<title>categories</title>
<polygon fill="#efefef" stroke="transparent" points="43.5,-132.5 43.5,-167.5 267.5,-167.5 267.5,-132.5 43.5,-132.5"/>
<polygon fill="none" stroke="#000000" points="43.5,-132.5 43.5,-167.5 267.5,-167.5 267.5,-132.5 43.5,-132.5"/>
<text text-anchor="start" x="50.2062" y="-145.3" font-family="Arial Bold" font-size="18.00" fill="#000000">categories</text>
<text text-anchor="start" x="133.2258" y="-145.3" font-family="Arial" font-size="14.00" fill="#000000">    </text>
<text text-anchor="start" x="167.4306" y="-145.3" font-family="Arial" font-size="14.00" fill="#666666">[BASE TABLE]</text>
<polygon fill="none" stroke="#000000" points="43.5,-102.5 43.5,-132.5 267.5,-132.5 267.5,-102.5 43.5,-102.5"/>
<text text-anchor="start" x="50.5" y="-113.9" font-family="Arial" font-size="14.00" fill="#000000">id    </text>
<text text-anchor="start" x="95.594" y="-113.9" font-family="Arial" font-size="14.00" fill="#666666">[bigint(20) unsigned]</text>
<polygon fill="none" stroke="#000000" points="43.5,-72.5 43.5,-102.5 267.5,-102.5 267.5,-72.5 43.5,-72.5"/>
<text text-anchor="start" x="50.5" y="-83.9" font-family="Arial" font-size="14.00" fill="#000000">name    </text>
<text text-anchor="start" x="119.7132" y="-83.9" font-family="Arial" font-size="14.00" fill="#666666">[varchar(255)]</text>
<polygon fill="none" stroke="#000000" points="43.5,-42.5 43.5,-72.5 267.5,-72.5 267.5,-42.5 43.5,-42.5"/>
<text text-anchor="start" x="50.5" y="-53.9" font-family="Arial" font-size="14.00" fill="#000000">display_order    </text>
<text text-anchor="start" x="168.7174" y="-53.9" font-family="Arial" font-size="14.00" fill="#666666">[int(11)]</text>
</g>
<!-- todos&#45;&gt;categories -->
<g id="edge1" class="edge">
<title>todos:category_id&#45;&gt;categories:id</title>
<path fill="none" stroke="#000000" d="M273.8902,-456.8751C354.437,-446.7283 321.7109,-315.5105 263.5,-247 199.3469,-171.4959 107.6531,-286.5041 43.5,-211 16.5928,-179.3319 1.9444,-117.5 43.5,-117.5"/>
<polygon fill="#000000" stroke="#000000" points="273.482,-456.8996 263.2298,-453.0081 268.491,-457.1998 263.5,-457.5 263.5,-457.5 263.5,-457.5 268.491,-457.1998 263.7702,-461.9919 273.482,-456.8996 273.482,-456.8996"/>
<text text-anchor="start" x="270.159" y="-467.5" font-family="Arial" font-size="10.00" fill="#000000">FOREIGN KEY (category_id) REFERENCES categories (id)</text>
</g>
</g>
</svg>
