<?xml version="1.0" encoding="UTF-8" standalone="no"?>
<!DOCTYPE svg PUBLIC "-//W3C//DTD SVG 1.1//EN"
 "http://www.w3.org/Graphics/SVG/1.1/DTD/svg11.dtd">
<!-- Generated by graphviz version 2.40.1 (20161225.0304)
 -->
<!-- Title: サンプル Pages: 1 -->
<svg width="630pt" height="646pt"
 viewBox="0.00 0.00 630.00 646.00" xmlns="http://www.w3.org/2000/svg" xmlns:xlink="http://www.w3.org/1999/xlink">
<g id="graph0" class="graph" transform="scale(1 1) rotate(0) translate(4 642)">
<title>サンプル</title>
<polygon fill="#ffffff" stroke="transparent" points="-4,4 -4,-642 626,-642 626,4 -4,4"/>
<!-- categories -->
<g id="node1" class="node">
<title>categories</title>
<polygon fill="#efefef" stroke="transparent" points="55.5,-132.5 55.5,-167.5 279.5,-167.5 279.5,-132.5 55.5,-132.5"/>
<polygon fill="none" stroke="#000000" points="55.5,-132.5 55.5,-167.5 279.5,-167.5 279.5,-132.5 55.5,-132.5"/>
<text text-anchor="start" x="62.2062" y="-145.3" font-family="Arial Bold" font-size="18.00" fill="#000000">categories</text>
<text text-anchor="start" x="145.2258" y="-145.3" font-family="Arial" font-size="14.00" fill="#000000">    </text>
<text text-anchor="start" x="179.4306" y="-145.3" font-family="Arial" font-size="14.00" fill="#666666">[BASE TABLE]</text>
<polygon fill="none" stroke="#000000" points="55.5,-102.5 55.5,-132.5 279.5,-132.5 279.5,-102.5 55.5,-102.5"/>
<text text-anchor="start" x="62.5" y="-113.9" font-family="Arial" font-size="14.00" fill="#000000">id    </text>
<text text-anchor="start" x="107.594" y="-113.9" font-family="Arial" font-size="14.00" fill="#666666">[bigint(20) unsigned]</text>
<polygon fill="none" stroke="#000000" points="55.5,-72.5 55.5,-102.5 279.5,-102.5 279.5,-72.5 55.5,-72.5"/>
<text text-anchor="start" x="62.5" y="-83.9" font-family="Arial" font-size="14.00" fill="#000000">name    </text>
<text text-anchor="start" x="131.7132" y="-83.9" font-family="Arial" font-size="14.00" fill="#666666">[varchar(255)]</text>
<polygon fill="none" stroke="#000000" points="55.5,-42.5 55.5,-72.5 279.5,-72.5 279.5,-42.5 55.5,-42.5"/>
<text text-anchor="start" x="62.5" y="-53.9" font-family="Arial" font-size="14.00" fill="#000000">display_order    </text>
<text text-anchor="start" x="180.7174" y="-53.9" font-family="Arial" font-size="14.00" fill="#666666">[int(11)]</text>
</g>
<!-- test -->
<g id="node2" class="node">
<title>test</title>
<polygon fill="#efefef" stroke="transparent" points="394.5,-454.5 394.5,-489.5 579.5,-489.5 579.5,-454.5 394.5,-454.5"/>
<polygon fill="none" stroke="#000000" points="394.5,-454.5 394.5,-489.5 579.5,-489.5 579.5,-454.5 394.5,-454.5"/>
<text text-anchor="start" x="408.7107" y="-467.3" font-family="Arial Bold" font-size="18.00" fill="#000000">test</text>
<text text-anchor="start" x="437.7213" y="-467.3" font-family="Arial" font-size="14.00" fill="#000000">    </text>
<text text-anchor="start" x="471.9261" y="-467.3" font-family="Arial" font-size="14.00" fill="#666666">[BASE TABLE]</text>
<polygon fill="none" stroke="#000000" points="394.5,-424.5 394.5,-454.5 579.5,-454.5 579.5,-424.5 394.5,-424.5"/>
<text text-anchor="start" x="401.047" y="-435.9" font-family="Arial" font-size="14.00" fill="#000000">id    </text>
<text text-anchor="start" x="446.141" y="-435.9" font-family="Arial" font-size="14.00" fill="#666666">[bigint(20) unsigned]</text>
<polygon fill="none" stroke="#000000" points="394.5,-394.5 394.5,-424.5 579.5,-424.5 579.5,-394.5 394.5,-394.5"/>
<text text-anchor="start" x="401.5" y="-405.9" font-family="Arial" font-size="14.00" fill="#000000">title    </text>
<text text-anchor="start" x="457.4818" y="-405.9" font-family="Arial" font-size="14.00" fill="#666666">[varchar(255)]</text>
</g>
<!-- todos -->
<g id="node3" class="node">
<title>todos</title>
<polygon fill="#efefef" stroke="transparent" points="43.5,-559.5 43.5,-594.5 290.5,-594.5 290.5,-559.5 43.5,-559.5"/>
<polygon fill="none" stroke="#000000" points="43.5,-559.5 43.5,-594.5 290.5,-594.5 290.5,-559.5 43.5,-559.5"/>
<text text-anchor="start" x="81.2056" y="-572.3" font-family="Arial Bold" font-size="18.00" fill="#000000">todos</text>
<text text-anchor="start" x="125.2264" y="-572.3" font-family="Arial" font-size="14.00" fill="#000000">    </text>
<text text-anchor="start" x="159.4312" y="-572.3" font-family="Arial" font-size="14.00" fill="#666666">[BASE TABLE]</text>
<polygon fill="none" stroke="#000000" points="43.5,-529.5 43.5,-559.5 290.5,-559.5 290.5,-529.5 43.5,-529.5"/>
<text text-anchor="start" x="50.5" y="-540.9" font-family="Arial" font-size="14.00" fill="#000000">id    </text>
<text text-anchor="start" x="95.594" y="-540.9" font-family="Arial" font-size="14.00" fill="#666666">[bigint(20) unsigned]</text>
<polygon fill="none" stroke="#000000" points="43.5,-499.5 43.5,-529.5 290.5,-529.5 290.5,-499.5 43.5,-499.5"/>
<text text-anchor="start" x="50.5" y="-510.9" font-family="Arial" font-size="14.00" fill="#000000">user_name    </text>
<text text-anchor="start" x="154.7216" y="-510.9" font-family="Arial" font-size="14.00" fill="#666666">[varchar(255)]</text>
<polygon fill="none" stroke="#000000" points="43.5,-469.5 43.5,-499.5 290.5,-499.5 290.5,-469.5 43.5,-469.5"/>
<text text-anchor="start" x="50.5" y="-480.9" font-family="Arial" font-size="14.00" fill="#000000">name    </text>
<text text-anchor="start" x="119.7132" y="-480.9" font-family="Arial" font-size="14.00" fill="#666666">[varchar(255)]</text>
<polygon fill="none" stroke="#000000" points="43.5,-439.5 43.5,-469.5 290.5,-469.5 290.5,-439.5 43.5,-439.5"/>
<text text-anchor="start" x="50.3149" y="-450.9" font-family="Arial" font-size="14.00" fill="#000000">category_id    </text>
<text text-anchor="start" x="156.8731" y="-450.9" font-family="Arial" font-size="14.00" fill="#666666">[bigint(20) unsigned]</text>
<polygon fill="none" stroke="#000000" points="43.5,-409.5 43.5,-439.5 290.5,-439.5 290.5,-409.5 43.5,-409.5"/>
<text text-anchor="start" x="50.5" y="-420.9" font-family="Arial" font-size="14.00" fill="#000000">due_date    </text>
<text text-anchor="start" x="143.0736" y="-420.9" font-family="Arial" font-size="14.00" fill="#666666">[date]</text>
<polygon fill="none" stroke="#000000" points="43.5,-379.5 43.5,-409.5 290.5,-409.5 290.5,-379.5 43.5,-379.5"/>
<text text-anchor="start" x="50.5" y="-390.9" font-family="Arial" font-size="14.00" fill="#000000">status    </text>
<text text-anchor="start" x="122.0512" y="-390.9" font-family="Arial" font-size="14.00" fill="#666666">[enum(&#39;todo&#39;,&#39;done&#39;)]</text>
<polygon fill="none" stroke="#000000" points="43.5,-349.5 43.5,-379.5 290.5,-379.5 290.5,-349.5 43.5,-349.5"/>
<text text-anchor="start" x="50.5" y="-360.9" font-family="Arial" font-size="14.00" fill="#000000">deleted    </text>
<text text-anchor="start" x="130.615" y="-360.9" font-family="Arial" font-size="14.00" fill="#666666">[tinyint(1)]</text>
<polygon fill="none" stroke="#000000" points="43.5,-319.5 43.5,-349.5 290.5,-349.5 290.5,-319.5 43.5,-319.5"/>
<text text-anchor="start" x="50.5" y="-330.9" font-family="Arial" font-size="14.00" fill="#000000">created_at    </text>
<text text-anchor="start" x="150.8422" y="-330.9" font-family="Arial" font-size="14.00" fill="#666666">[timestamp]</text>
<polygon fill="none" stroke="#000000" points="43.5,-289.5 43.5,-319.5 290.5,-319.5 290.5,-289.5 43.5,-289.5"/>
<text text-anchor="start" x="50.5" y="-300.9" font-family="Arial" font-size="14.00" fill="#000000">updated_at    </text>
<text text-anchor="start" x="154.7468" y="-300.9" font-family="Arial" font-size="14.00" fill="#666666">[timestamp]</text>
</g>
<!-- todos&#45;&gt;categories -->
<g id="edge1" class="edge">
<title>todos:category_id&#45;&gt;categories:id</title>
<path fill="none" stroke="#000000" d="M300.1916,-451.489C334.0141,-428.3843 318.189,-279.2538 290.5,-247 221.674,-166.8275 124.326,-291.1725 55.5,-211 28.4318,-179.4694 13.9444,-117.5 55.5,-117.5"/>
<polygon fill="#000000" stroke="#000000" points="300.0497,-451.533 289.1649,-450.2026 295.2749,-453.0165 290.5,-454.5 290.5,-454.5 290.5,-454.5 295.2749,-453.0165 291.8351,-458.7974 300.0497,-451.533 300.0497,-451.533"/>
<text text-anchor="start" x="297.159" y="-464.5" font-family="Arial" font-size="10.00" fill="#000000">FOREIGN KEY (category_id) REFERENCES categories (id)</text>
</g>
</g>
</svg>
